<?xml version="1.0" encoding="UTF-8"?>
<svg width="64" height="64" viewBox="0 0 64 64" fill="none" xmlns="http://www.w3.org/2000/svg" role="img" aria-labelledby="title desc">
  <title id="title">IT Arena icon</title>
  <desc id="desc">Square rounded gradient icon with stylized IT letterforms</desc>
  <defs>
    <linearGradient id="grad" x1="0" y1="0" x2="64" y2="64" gradientUnits="userSpaceOnUse">
      <stop offset="0" stop-color="#8B5CF6"/>
      <stop offset="0.5" stop-color="#6366F1"/>
      <stop offset="1" stop-color="#0EA5E9"/>
    </linearGradient>
    <linearGradient id="strokeGrad" x1="12" y1="12" x2="52" y2="52" gradientUnits="userSpaceOnUse">
      <stop offset="0" stop-color="#F5F3FF" stop-opacity="0.9"/>
      <stop offset="1" stop-color="#E0F2FE" stop-opacity="0.6"/>
    </linearGradient>
  </defs>
  <rect x="4" y="4" width="56" height="56" rx="16" fill="url(#grad)"/>
  <rect x="4" y="4" width="56" height="56" rx="16" stroke="url(#strokeGrad)" stroke-width="2"/>
  <g fill="#FFFFFF">
    <rect x="20" y="18" width="6" height="28" rx="3"/>
    <path d="M32 18h18c1.7 0 3 1.3 3 3s-1.3 3-3 3h-7v19c0 1.7-1.3 3-3 3s-3-1.3-3-3V24h-5c-1.7 0-3-1.3-3-3s1.3-3 3-3Z"/>
  </g>
</svg>
