<?xml version="1.0" encoding="UTF-8"?>
<svg width="204" height="40" viewBox="0 0 204 40" fill="none" xmlns="http://www.w3.org/2000/svg" role="img" aria-labelledby="title desc">
  <title id="title">IT Arena — logo</title>
  <desc id="desc">Modern wordmark with a rounded monogram and gradient accent</desc>
  <defs>
    <linearGradient id="g" x1="0" y1="0" x2="204" y2="40" gradientUnits="userSpaceOnUse">
      <stop offset="0" stop-color="#A78BFA"/>
      <stop offset="1" stop-color="#60A5FA"/>
    </linearGradient>
    <filter id="soft" x="-20%" y="-50%" width="140%" height="200%" color-interpolation-filters="sRGB">
      <feGaussianBlur in="SourceGraphic" stdDeviation="0.6" result="blur"/>
    </filter>
  </defs>
  <!-- Monogram tile -->
  <g transform="translate(0,2)">
    <rect x="0" y="0" rx="10" ry="10" width="36" height="36" fill="url(#g)"/>
    <g fill="#FFFFFF">
      <rect x="8.5" y="9" width="4.5" height="18" rx="2"/>
      <path d="M17 9h15c1.1 0 2 .9 2 2s-.9 2-2 2h-5.5v13c0 1.1-.9 2-2 2s-2-.9-2-2V13H17c-1.1 0-2-.9-2-2s.9-2 2-2Z"/>
    </g>
  </g>
  <!-- Wordmark -->
  <g transform="translate(44,9)" fill="#0F172A">
    <path d="M0 0h4.2v22H0V0Z"/>
    <path d="M12.6 0h15.8c1.1 0 2 .9 2 2s-.9 2-2 2H24v18h-4V4h-7.4c-1.1 0-2-.9-2-2s.9-2 2-2Z"/>
    <path d="M42 3.6c3.2-3 8.4-3.9 12.6-2.1 2 .8 3.7 2.2 4.8 4l-3.6 2.1c-.7-1.2-1.8-2.1-3.1-2.6-2.4-1-5.4-.6-7.3 1.1-1.9 1.7-1.9 4.3 0 6 1.3 1.2 3 1.8 4.6 2.3 2 .6 4.1 1.2 5.9 2.6 3.7 2.8 3.9 8.4.4 11.5-3.4 3-9.3 3.3-13.1.6-2-.9-3.7-2.5-4.8-4.4l3.7-2c.7 1.2 1.8 2.2 3.1 2.9 2.5 1.4 5.8 1.4 8.1-.1 1.2-.9 1.8-2.5 1.4-3.9-.3-1.5-1.5-2.6-2.8-3.3-1.5-.8-3.1-1.3-4.7-1.8-2.3-.7-4.7-1.4-6.6-3.1-3.4-3-3.4-8.4.4-11.8Z"/>
  </g>
</svg>
