<svg width="640" height="400" viewBox="0 0 640 400" fill="none" xmlns="http://www.w3.org/2000/svg">
  <defs>
    <linearGradient id="g" x1="160" y1="90" x2="520" y2="320" gradientUnits="userSpaceOnUse">
      <stop stop-color="#7c3aed"/>
      <stop offset="0.5" stop-color="#a855f7"/>
      <stop offset="1" stop-color="#ec4899"/>
    </linearGradient>
  </defs>

  <!-- window -->
  <rect x="120" y="70" width="400" height="260" rx="28" fill="#F1F5F9"/>
  <rect x="120" y="70" width="400" height="54" rx="28" fill="#E2E8F0"/>
  <circle cx="150" cy="97" r="6" fill="#94A3B8"/>
  <circle cx="172" cy="97" r="6" fill="#94A3B8"/>
  <circle cx="194" cy="97" r="6" fill="#94A3B8"/>

  <!-- product card -->
  <rect x="150" y="140" width="210" height="170" rx="22" fill="#E2E8F0"/>
  <rect x="170" y="160" width="170" height="86" rx="18" fill="#F8FAFC"/>
  <path d="M190 210C225 175 255 175 290 210C315 235 335 245 355 255" stroke="url(#g)" stroke-width="6" stroke-linecap="round"/>
  <rect x="170" y="262" width="120" height="14" rx="7" fill="#64748B" opacity="0.55"/>
  <rect x="170" y="284" width="92" height="12" rx="6" fill="#64748B" opacity="0.35"/>

  <!-- price + add to cart -->
  <rect x="380" y="150" width="110" height="18" rx="9" fill="#0F172A" opacity="0.75"/>
  <rect x="380" y="180" width="140" height="44" rx="22" fill="url(#g)"/>
  <rect x="405" y="196" width="90" height="12" rx="6" fill="#FFFFFF" opacity="0.92"/>

  <!-- analytics mini chart -->
  <rect x="380" y="242" width="160" height="88" rx="22" fill="#E2E8F0"/>
  <path d="M402 308V290" stroke="#94A3B8" stroke-width="10" stroke-linecap="round"/>
  <path d="M428 308V276" stroke="#94A3B8" stroke-width="10" stroke-linecap="round"/>
  <path d="M454 308V266" stroke="#94A3B8" stroke-width="10" stroke-linecap="round"/>
  <path d="M480 308V284" stroke="#94A3B8" stroke-width="10" stroke-linecap="round"/>
  <path d="M506 308V260" stroke="url(#g)" stroke-width="10" stroke-linecap="round"/>

</svg>
